<mxfile host="drawio-plugin" modified="2022-08-23T10:14:23.587Z" agent="5.0 (Macintosh; Intel Mac OS X 10_15_7) AppleWebKit/537.36 (KHTML, like Gecko) Chrome/98.0.4758.102 Safari/537.36" etag="OcMojISEJFDWLsbZ0Ra_" version="15.5.4" type="embed"><diagram id="4kbnmAaxNWL_Lmrh82Qi" name="Page-1"><mxGraphModel dx="1526" dy="639" grid="0" gridSize="10" guides="1" tooltips="1" connect="1" arrows="1" fold="1" page="0" pageScale="1" pageWidth="827" pageHeight="1169" math="0" shadow="0"><root><mxCell id="0"/><mxCell id="1" parent="0"/><mxCell id="i1UuszKoWaV959UOTAM5-16" style="edgeStyle=orthogonalEdgeStyle;rounded=0;orthogonalLoop=1;jettySize=auto;html=1;entryX=0;entryY=0.5;entryDx=0;entryDy=0;" parent="1" source="i1UuszKoWaV959UOTAM5-6" target="i1UuszKoWaV959UOTAM5-15" edge="1"><mxGeometry relative="1" as="geometry"/></mxCell><mxCell id="i1UuszKoWaV959UOTAM5-18" value="http, websockets" style="edgeLabel;html=1;align=center;verticalAlign=middle;resizable=0;points=[];" parent="i1UuszKoWaV959UOTAM5-16" vertex="1" connectable="0"><mxGeometry x="-0.6213" y="-2" relative="1" as="geometry"><mxPoint x="47" y="-12" as="offset"/></mxGeometry></mxCell><mxCell id="i1UuszKoWaV959UOTAM5-6" value="gamer&lt;br&gt;" style="shape=umlActor;verticalLabelPosition=bottom;verticalAlign=top;html=1;outlineConnect=0;" parent="1" vertex="1"><mxGeometry x="162" y="126" width="30" height="60" as="geometry"/></mxCell><mxCell id="i1UuszKoWaV959UOTAM5-13" value="aws-sdk" style="edgeStyle=orthogonalEdgeStyle;rounded=0;orthogonalLoop=1;jettySize=auto;html=1;" parent="1" source="i1UuszKoWaV959UOTAM5-8" target="i1UuszKoWaV959UOTAM5-12" edge="1"><mxGeometry x="0.0137" y="13" relative="1" as="geometry"><mxPoint as="offset"/></mxGeometry></mxCell><mxCell id="i1UuszKoWaV959UOTAM5-8" value="ttt-backed" style="rounded=1;whiteSpace=wrap;html=1;" parent="1" vertex="1"><mxGeometry x="653" y="126" width="120" height="60" as="geometry"/></mxCell><mxCell id="i1UuszKoWaV959UOTAM5-12" value="DynamoDB&lt;br&gt;" style="outlineConnect=0;dashed=0;verticalLabelPosition=bottom;verticalAlign=top;align=center;html=1;shape=mxgraph.aws3.dynamo_db;fillColor=#2E73B8;gradientColor=none;" parent="1" vertex="1"><mxGeometry x="919" y="115.5" width="72" height="81" as="geometry"/></mxCell><mxCell id="i1UuszKoWaV959UOTAM5-17" style="edgeStyle=orthogonalEdgeStyle;rounded=0;orthogonalLoop=1;jettySize=auto;html=1;" parent="1" source="i1UuszKoWaV959UOTAM5-15" target="i1UuszKoWaV959UOTAM5-8" edge="1"><mxGeometry relative="1" as="geometry"/></mxCell><mxCell id="i1UuszKoWaV959UOTAM5-19" value="http, websockets" style="edgeLabel;html=1;align=center;verticalAlign=middle;resizable=0;points=[];" parent="i1UuszKoWaV959UOTAM5-17" vertex="1" connectable="0"><mxGeometry x="-0.3837" y="-2" relative="1" as="geometry"><mxPoint x="33" y="-14" as="offset"/></mxGeometry></mxCell><mxCell id="i1UuszKoWaV959UOTAM5-15" value="ttt-frontend" style="rounded=1;whiteSpace=wrap;html=1;" parent="1" vertex="1"><mxGeometry x="361" y="126" width="120" height="60" as="geometry"/></mxCell><mxCell id="i1UuszKoWaV959UOTAM5-21" value="" style="whiteSpace=wrap;html=1;" parent="1" vertex="1"><mxGeometry x="398" y="319" width="302" height="312" as="geometry"/></mxCell><mxCell id="i1UuszKoWaV959UOTAM5-34" value="Valio" style="rounded=1;whiteSpace=wrap;html=1;" parent="1" vertex="1"><mxGeometry x="468" y="392.5" width="162" height="20" as="geometry"/></mxCell><mxCell id="i1UuszKoWaV959UOTAM5-35" value="Rado" style="rounded=1;whiteSpace=wrap;html=1;" parent="1" vertex="1"><mxGeometry x="468" y="421.5" width="162" height="20" as="geometry"/></mxCell><mxCell id="i1UuszKoWaV959UOTAM5-36" value="Iva" style="rounded=1;whiteSpace=wrap;html=1;" parent="1" vertex="1"><mxGeometry x="468" y="450.5" width="162" height="20" as="geometry"/></mxCell><mxCell id="i1UuszKoWaV959UOTAM5-37" value="Ramadan" style="rounded=1;whiteSpace=wrap;html=1;" parent="1" vertex="1"><mxGeometry x="468" y="479.5" width="162" height="20" as="geometry"/></mxCell><mxCell id="i1UuszKoWaV959UOTAM5-38" value="Pe6o" style="rounded=1;whiteSpace=wrap;html=1;" parent="1" vertex="1"><mxGeometry x="468" y="508.5" width="162" height="20" as="geometry"/></mxCell><mxCell id="i1UuszKoWaV959UOTAM5-39" value="Kristo" style="rounded=1;whiteSpace=wrap;html=1;" parent="1" vertex="1"><mxGeometry x="468" y="537.5" width="162" height="20" as="geometry"/></mxCell><mxCell id="i1UuszKoWaV959UOTAM5-40" value="MyName" style="text;html=1;strokeColor=none;fillColor=none;align=center;verticalAlign=middle;whiteSpace=wrap;rounded=0;" parent="1" vertex="1"><mxGeometry x="590" y="325" width="60" height="30" as="geometry"/></mxCell><mxCell id="i1UuszKoWaV959UOTAM5-41" value="change" style="rounded=1;whiteSpace=wrap;html=1;" parent="1" vertex="1"><mxGeometry x="652" y="331.5" width="46" height="17" as="geometry"/></mxCell><mxCell id="i1UuszKoWaV959UOTAM5-42" value="Home Screen" style="text;html=1;align=center;verticalAlign=middle;resizable=0;points=[];autosize=1;strokeColor=none;fillColor=none;" parent="1" vertex="1"><mxGeometry x="503.5" y="284" width="91" height="26" as="geometry"/></mxCell><mxCell id="i1UuszKoWaV959UOTAM5-43" value="" style="whiteSpace=wrap;html=1;" parent="1" vertex="1"><mxGeometry x="75" y="319" width="302" height="312" as="geometry"/></mxCell><mxCell id="i1UuszKoWaV959UOTAM5-44" value="" style="rounded=1;whiteSpace=wrap;html=1;" parent="1" vertex="1"><mxGeometry x="145" y="392.5" width="162" height="20" as="geometry"/></mxCell><mxCell id="i1UuszKoWaV959UOTAM5-45" value="" style="rounded=1;whiteSpace=wrap;html=1;" parent="1" vertex="1"><mxGeometry x="145" y="421.5" width="162" height="20" as="geometry"/></mxCell><mxCell id="i1UuszKoWaV959UOTAM5-46" value="" style="rounded=1;whiteSpace=wrap;html=1;" parent="1" vertex="1"><mxGeometry x="145" y="450.5" width="162" height="20" as="geometry"/></mxCell><mxCell id="i1UuszKoWaV959UOTAM5-47" value="" style="rounded=1;whiteSpace=wrap;html=1;" parent="1" vertex="1"><mxGeometry x="145" y="479.5" width="162" height="20" as="geometry"/></mxCell><mxCell id="i1UuszKoWaV959UOTAM5-48" value="" style="rounded=1;whiteSpace=wrap;html=1;" parent="1" vertex="1"><mxGeometry x="145" y="508.5" width="162" height="20" as="geometry"/></mxCell><mxCell id="i1UuszKoWaV959UOTAM5-49" value="" style="rounded=1;whiteSpace=wrap;html=1;" parent="1" vertex="1"><mxGeometry x="145" y="537.5" width="162" height="20" as="geometry"/></mxCell><mxCell id="i1UuszKoWaV959UOTAM5-50" value="MyName" style="text;html=1;strokeColor=none;fillColor=none;align=center;verticalAlign=middle;whiteSpace=wrap;rounded=0;" parent="1" vertex="1"><mxGeometry x="267" y="325" width="60" height="30" as="geometry"/></mxCell><mxCell id="i1UuszKoWaV959UOTAM5-51" value="change" style="rounded=1;whiteSpace=wrap;html=1;" parent="1" vertex="1"><mxGeometry x="329" y="331.5" width="46" height="17" as="geometry"/></mxCell><mxCell id="i1UuszKoWaV959UOTAM5-53" value="" style="whiteSpace=wrap;html=1;aspect=fixed;fillColor=#d5e8d4;strokeColor=#82b366;" parent="1" vertex="1"><mxGeometry x="111" y="360" width="230" height="230" as="geometry"/></mxCell><mxCell id="i1UuszKoWaV959UOTAM5-54" value="Input name" style="rounded=1;whiteSpace=wrap;html=1;" parent="1" vertex="1"><mxGeometry x="164" y="410.5" width="120" height="33.5" as="geometry"/></mxCell><mxCell id="i1UuszKoWaV959UOTAM5-55" value="kop4e" style="rounded=1;whiteSpace=wrap;html=1;" parent="1" vertex="1"><mxGeometry x="198" y="465" width="52" height="14.5" as="geometry"/></mxCell><mxCell id="i1UuszKoWaV959UOTAM5-56" value="Name Input&lt;br&gt;" style="text;html=1;align=center;verticalAlign=middle;resizable=0;points=[];autosize=1;strokeColor=none;fillColor=none;" parent="1" vertex="1"><mxGeometry x="189" y="287" width="80" height="26" as="geometry"/></mxCell><mxCell id="i1UuszKoWaV959UOTAM5-58" value="" style="html=1;verticalLabelPosition=bottom;align=center;labelBackgroundColor=#ffffff;verticalAlign=top;strokeWidth=2;strokeColor=#0080F0;shadow=0;dashed=0;shape=mxgraph.ios7.icons.add;" parent="1" vertex="1"><mxGeometry x="608" y="394.5" width="16" height="16" as="geometry"/></mxCell><mxCell id="i1UuszKoWaV959UOTAM5-59" value="" style="html=1;verticalLabelPosition=bottom;align=center;labelBackgroundColor=#ffffff;verticalAlign=top;strokeWidth=2;strokeColor=#0080F0;shadow=0;dashed=0;shape=mxgraph.ios7.icons.add;" parent="1" vertex="1"><mxGeometry x="608" y="423.5" width="16" height="16" as="geometry"/></mxCell><mxCell id="i1UuszKoWaV959UOTAM5-60" value="" style="html=1;verticalLabelPosition=bottom;align=center;labelBackgroundColor=#ffffff;verticalAlign=top;strokeWidth=2;strokeColor=#0080F0;shadow=0;dashed=0;shape=mxgraph.ios7.icons.add;" parent="1" vertex="1"><mxGeometry x="608" y="452.5" width="16" height="16" as="geometry"/></mxCell><mxCell id="i1UuszKoWaV959UOTAM5-61" value="" style="html=1;verticalLabelPosition=bottom;align=center;labelBackgroundColor=#ffffff;verticalAlign=top;strokeWidth=2;strokeColor=#0080F0;shadow=0;dashed=0;shape=mxgraph.ios7.icons.add;" parent="1" vertex="1"><mxGeometry x="608" y="481.5" width="16" height="16" as="geometry"/></mxCell><mxCell id="i1UuszKoWaV959UOTAM5-62" value="" style="html=1;verticalLabelPosition=bottom;align=center;labelBackgroundColor=#ffffff;verticalAlign=top;strokeWidth=2;strokeColor=#0080F0;shadow=0;dashed=0;shape=mxgraph.ios7.icons.add;" parent="1" vertex="1"><mxGeometry x="608" y="510.5" width="16" height="16" as="geometry"/></mxCell><mxCell id="i1UuszKoWaV959UOTAM5-63" value="" style="html=1;verticalLabelPosition=bottom;align=center;labelBackgroundColor=#ffffff;verticalAlign=top;strokeWidth=2;strokeColor=#0080F0;shadow=0;dashed=0;shape=mxgraph.ios7.icons.add;" parent="1" vertex="1"><mxGeometry x="608" y="539.5" width="16" height="16" as="geometry"/></mxCell><mxCell id="i1UuszKoWaV959UOTAM5-64" value="" style="whiteSpace=wrap;html=1;" parent="1" vertex="1"><mxGeometry x="733" y="319" width="302" height="312" as="geometry"/></mxCell><mxCell id="i1UuszKoWaV959UOTAM5-79" value="" style="whiteSpace=wrap;html=1;aspect=fixed;" parent="1" vertex="1"><mxGeometry x="741" y="355.5" width="80" height="80" as="geometry"/></mxCell><mxCell id="i1UuszKoWaV959UOTAM5-80" value="" style="whiteSpace=wrap;html=1;aspect=fixed;" parent="1" vertex="1"><mxGeometry x="821" y="355.5" width="80" height="80" as="geometry"/></mxCell><mxCell id="i1UuszKoWaV959UOTAM5-81" value="" style="whiteSpace=wrap;html=1;aspect=fixed;" parent="1" vertex="1"><mxGeometry x="901" y="355" width="80" height="80" as="geometry"/></mxCell><mxCell id="i1UuszKoWaV959UOTAM5-82" value="" style="whiteSpace=wrap;html=1;aspect=fixed;" parent="1" vertex="1"><mxGeometry x="741" y="515.5" width="80" height="80" as="geometry"/></mxCell><mxCell id="i1UuszKoWaV959UOTAM5-83" value="" style="whiteSpace=wrap;html=1;aspect=fixed;" parent="1" vertex="1"><mxGeometry x="821" y="514" width="80" height="80" as="geometry"/></mxCell><mxCell id="i1UuszKoWaV959UOTAM5-84" value="" style="whiteSpace=wrap;html=1;aspect=fixed;" parent="1" vertex="1"><mxGeometry x="901" y="515.5" width="80" height="80" as="geometry"/></mxCell><mxCell id="i1UuszKoWaV959UOTAM5-85" value="" style="whiteSpace=wrap;html=1;aspect=fixed;" parent="1" vertex="1"><mxGeometry x="741" y="436" width="80" height="80" as="geometry"/></mxCell><mxCell id="i1UuszKoWaV959UOTAM5-86" value="" style="whiteSpace=wrap;html=1;aspect=fixed;" parent="1" vertex="1"><mxGeometry x="821" y="436" width="80" height="80" as="geometry"/></mxCell><mxCell id="i1UuszKoWaV959UOTAM5-87" value="" style="whiteSpace=wrap;html=1;aspect=fixed;" parent="1" vertex="1"><mxGeometry x="901" y="435.5" width="80" height="80" as="geometry"/></mxCell><mxCell id="i1UuszKoWaV959UOTAM5-88" value="P1&lt;br&gt;Name" style="text;html=1;strokeColor=none;fillColor=none;align=center;verticalAlign=middle;whiteSpace=wrap;rounded=0;" parent="1" vertex="1"><mxGeometry x="975" y="373" width="60" height="30" as="geometry"/></mxCell><mxCell id="i1UuszKoWaV959UOTAM5-89" value="P2&lt;br&gt;name" style="text;html=1;strokeColor=none;fillColor=none;align=center;verticalAlign=middle;whiteSpace=wrap;rounded=0;" parent="1" vertex="1"><mxGeometry x="975" y="516" width="60" height="30" as="geometry"/></mxCell><mxCell id="i1UuszKoWaV959UOTAM5-90" value="Game Screen" style="text;html=1;align=center;verticalAlign=middle;resizable=0;points=[];autosize=1;strokeColor=none;fillColor=none;" parent="1" vertex="1"><mxGeometry x="838" y="284" width="92" height="26" as="geometry"/></mxCell><mxCell id="i1UuszKoWaV959UOTAM5-91" value="" style="ellipse;whiteSpace=wrap;html=1;aspect=fixed;" parent="1" vertex="1"><mxGeometry x="753" y="452.5" width="51" height="51" as="geometry"/></mxCell><mxCell id="i1UuszKoWaV959UOTAM5-92" value="gamer" style="shape=umlActor;verticalLabelPosition=bottom;verticalAlign=top;html=1;outlineConnect=0;" parent="1" vertex="1"><mxGeometry x="211" y="753" width="30" height="60" as="geometry"/></mxCell><mxCell id="i1UuszKoWaV959UOTAM5-93" value="frontend" style="rounded=1;whiteSpace=wrap;html=1;" parent="1" vertex="1"><mxGeometry x="477" y="764" width="120" height="60" as="geometry"/></mxCell><mxCell id="i1UuszKoWaV959UOTAM5-94" value="backend" style="rounded=1;whiteSpace=wrap;html=1;" parent="1" vertex="1"><mxGeometry x="808" y="764" width="120" height="60" as="geometry"/></mxCell><mxCell id="i1UuszKoWaV959UOTAM5-97" value="" style="endArrow=none;dashed=1;html=1;dashPattern=1 3;strokeWidth=2;rounded=0;" parent="1" source="i1UuszKoWaV959UOTAM5-92" edge="1"><mxGeometry width="50" height="50" relative="1" as="geometry"><mxPoint x="535" y="1030" as="sourcePoint"/><mxPoint x="223" y="1829" as="targetPoint"/></mxGeometry></mxCell><mxCell id="i1UuszKoWaV959UOTAM5-98" value="" style="endArrow=none;dashed=1;html=1;dashPattern=1 3;strokeWidth=2;rounded=0;" parent="1" edge="1"><mxGeometry width="50" height="50" relative="1" as="geometry"><mxPoint x="875" y="826" as="sourcePoint"/><mxPoint x="875" y="1850" as="targetPoint"/></mxGeometry></mxCell><mxCell id="i1UuszKoWaV959UOTAM5-99" value="" style="endArrow=none;dashed=1;html=1;dashPattern=1 3;strokeWidth=2;rounded=0;" parent="1" edge="1"><mxGeometry width="50" height="50" relative="1" as="geometry"><mxPoint x="536.5" y="826" as="sourcePoint"/><mxPoint x="534" y="1839" as="targetPoint"/></mxGeometry></mxCell><mxCell id="i1UuszKoWaV959UOTAM5-106" value="Opens app" style="text;html=1;strokeColor=none;fillColor=none;align=center;verticalAlign=middle;whiteSpace=wrap;rounded=0;" parent="1" vertex="1"><mxGeometry x="162" y="859" width="60" height="30" as="geometry"/></mxCell><mxCell id="i1UuszKoWaV959UOTAM5-108" value="Inputs name" style="text;html=1;align=center;verticalAlign=middle;resizable=0;points=[];autosize=1;strokeColor=none;fillColor=none;" parent="1" vertex="1"><mxGeometry x="448" y="861" width="84" height="26" as="geometry"/></mxCell><mxCell id="i1UuszKoWaV959UOTAM5-110" value="" style="endArrow=classic;html=1;rounded=0;exitX=1;exitY=0.5;exitDx=0;exitDy=0;" parent="1" source="i1UuszKoWaV959UOTAM5-106" target="i1UuszKoWaV959UOTAM5-108" edge="1"><mxGeometry width="50" height="50" relative="1" as="geometry"><mxPoint x="78" y="991" as="sourcePoint"/><mxPoint x="128" y="941" as="targetPoint"/></mxGeometry></mxCell><mxCell id="i1UuszKoWaV959UOTAM5-111" value="Home Screen&lt;br&gt;HTTP" style="text;html=1;align=center;verticalAlign=middle;resizable=0;points=[];autosize=1;strokeColor=none;fillColor=none;" parent="1" vertex="1"><mxGeometry x="491.5" y="712" width="91" height="41" as="geometry"/></mxCell><mxCell id="i1UuszKoWaV959UOTAM5-112" value="" style="endArrow=classic;html=1;rounded=0;" parent="1" edge="1"><mxGeometry width="50" height="50" relative="1" as="geometry"><mxPoint x="538" y="871" as="sourcePoint"/><mxPoint x="867" y="871" as="targetPoint"/></mxGeometry></mxCell><mxCell id="i1UuszKoWaV959UOTAM5-114" value="add user to online pool" style="text;html=1;strokeColor=none;fillColor=none;align=center;verticalAlign=middle;whiteSpace=wrap;rounded=0;" parent="1" vertex="1"><mxGeometry x="877" y="861" width="60" height="30" as="geometry"/></mxCell><mxCell id="i1UuszKoWaV959UOTAM5-115" value="Opens app" style="text;html=1;strokeColor=none;fillColor=none;align=center;verticalAlign=middle;whiteSpace=wrap;rounded=0;" parent="1" vertex="1"><mxGeometry x="155" y="1046.5" width="60" height="30" as="geometry"/></mxCell><mxCell id="i1UuszKoWaV959UOTAM5-116" value="" style="endArrow=classic;html=1;rounded=0;exitX=1;exitY=0.5;exitDx=0;exitDy=0;" parent="1" edge="1"><mxGeometry width="50" height="50" relative="1" as="geometry"><mxPoint x="224" y="1057.5" as="sourcePoint"/><mxPoint x="437" y="1057.5" as="targetPoint"/></mxGeometry></mxCell><mxCell id="i1UuszKoWaV959UOTAM5-117" value="get list of online&lt;br&gt;players" style="text;html=1;align=center;verticalAlign=middle;resizable=0;points=[];autosize=1;strokeColor=none;fillColor=none;" parent="1" vertex="1"><mxGeometry x="432" y="1041" width="101" height="41" as="geometry"/></mxCell><mxCell id="i1UuszKoWaV959UOTAM5-118" value="" style="endArrow=classic;html=1;rounded=0;" parent="1" target="i1UuszKoWaV959UOTAM5-119" edge="1"><mxGeometry width="50" height="50" relative="1" as="geometry"><mxPoint x="539" y="1056.5" as="sourcePoint"/><mxPoint x="771" y="1056.5" as="targetPoint"/></mxGeometry></mxCell><mxCell id="i1UuszKoWaV959UOTAM5-119" value="Fetch users" style="text;html=1;strokeColor=none;fillColor=none;align=center;verticalAlign=middle;whiteSpace=wrap;rounded=0;" parent="1" vertex="1"><mxGeometry x="877" y="1041" width="60" height="30" as="geometry"/></mxCell><mxCell id="i1UuszKoWaV959UOTAM5-120" value="" style="endArrow=classic;html=1;rounded=0;" parent="1" edge="1"><mxGeometry width="50" height="50" relative="1" as="geometry"><mxPoint x="84" y="1079" as="sourcePoint"/><mxPoint x="-219" y="1079" as="targetPoint"/></mxGeometry></mxCell><mxCell id="i1UuszKoWaV959UOTAM5-121" value="" style="endArrow=classic;html=1;rounded=0;" parent="1" edge="1"><mxGeometry width="50" height="50" relative="1" as="geometry"><mxPoint x="222" y="1275.5" as="sourcePoint"/><mxPoint x="532" y="1276" as="targetPoint"/></mxGeometry></mxCell><mxCell id="i1UuszKoWaV959UOTAM5-122" value="" style="endArrow=classic;html=1;rounded=0;exitX=0;exitY=0.5;exitDx=0;exitDy=0;" parent="1" source="i1UuszKoWaV959UOTAM5-119" edge="1"><mxGeometry width="50" height="50" relative="1" as="geometry"><mxPoint x="834" y="1117.5" as="sourcePoint"/><mxPoint x="548" y="1130.5" as="targetPoint"/></mxGeometry></mxCell><mxCell id="i1UuszKoWaV959UOTAM5-123" value="Visualize online users" style="text;html=1;strokeColor=none;fillColor=none;align=center;verticalAlign=middle;whiteSpace=wrap;rounded=0;" parent="1" vertex="1"><mxGeometry x="468" y="1124.5" width="60" height="30" as="geometry"/></mxCell><mxCell id="i1UuszKoWaV959UOTAM5-124" value="p1 invites p2 to game" style="text;html=1;strokeColor=none;fillColor=none;align=center;verticalAlign=middle;whiteSpace=wrap;rounded=0;" parent="1" vertex="1"><mxGeometry x="148" y="1261" width="60" height="30" as="geometry"/></mxCell><mxCell id="i1UuszKoWaV959UOTAM5-126" value="" style="endArrow=classic;html=1;rounded=0;" parent="1" edge="1"><mxGeometry width="50" height="50" relative="1" as="geometry"><mxPoint x="546" y="1275.5" as="sourcePoint"/><mxPoint x="856" y="1276" as="targetPoint"/></mxGeometry></mxCell><mxCell id="i1UuszKoWaV959UOTAM5-128" value="Add invitation to invitation list" style="text;html=1;strokeColor=none;fillColor=none;align=center;verticalAlign=middle;whiteSpace=wrap;rounded=0;" parent="1" vertex="1"><mxGeometry x="874" y="1257" width="90" height="48" as="geometry"/></mxCell><mxCell id="i1UuszKoWaV959UOTAM5-130" value="" style="endArrow=classic;html=1;rounded=0;" parent="1" edge="1"><mxGeometry width="50" height="50" relative="1" as="geometry"><mxPoint x="-209" y="1089" as="sourcePoint"/><mxPoint x="94" y="1089" as="targetPoint"/></mxGeometry></mxCell><mxCell id="i1UuszKoWaV959UOTAM5-131" value="" style="endArrow=classic;html=1;rounded=0;" parent="1" edge="1"><mxGeometry width="50" height="50" relative="1" as="geometry"><mxPoint x="861.5" y="1297" as="sourcePoint"/><mxPoint x="541" y="1352" as="targetPoint"/></mxGeometry></mxCell><mxCell id="i1UuszKoWaV959UOTAM5-132" value="p2" style="text;html=1;strokeColor=none;fillColor=none;align=center;verticalAlign=middle;whiteSpace=wrap;rounded=0;" parent="1" vertex="1"><mxGeometry x="151" y="1337" width="60" height="30" as="geometry"/></mxCell><mxCell id="i1UuszKoWaV959UOTAM5-133" value="Update list" style="text;html=1;strokeColor=none;fillColor=none;align=center;verticalAlign=middle;whiteSpace=wrap;rounded=0;" parent="1" vertex="1"><mxGeometry x="469" y="1337" width="60" height="30" as="geometry"/></mxCell><mxCell id="i1UuszKoWaV959UOTAM5-134" value="" style="endArrow=classic;html=1;rounded=0;" parent="1" edge="1"><mxGeometry width="50" height="50" relative="1" as="geometry"><mxPoint x="462" y="1352" as="sourcePoint"/><mxPoint x="222" y="1352" as="targetPoint"/></mxGeometry></mxCell><mxCell id="i1UuszKoWaV959UOTAM5-136" value="p2 accepts invite&amp;nbsp;" style="text;html=1;strokeColor=none;fillColor=none;align=center;verticalAlign=middle;whiteSpace=wrap;rounded=0;" parent="1" vertex="1"><mxGeometry x="151" y="1410" width="60" height="30" as="geometry"/></mxCell><mxCell id="i1UuszKoWaV959UOTAM5-137" value="" style="endArrow=classic;html=1;rounded=0;" parent="1" edge="1"><mxGeometry width="50" height="50" relative="1" as="geometry"><mxPoint x="230" y="1419" as="sourcePoint"/><mxPoint x="533" y="1419" as="targetPoint"/></mxGeometry></mxCell><mxCell id="i1UuszKoWaV959UOTAM5-138" value="" style="endArrow=classic;html=1;rounded=0;" parent="1" edge="1"><mxGeometry width="50" height="50" relative="1" as="geometry"><mxPoint x="540" y="1419" as="sourcePoint"/><mxPoint x="870" y="1419" as="targetPoint"/></mxGeometry></mxCell><mxCell id="i1UuszKoWaV959UOTAM5-139" value="Add p1 and p2 to game list&lt;br&gt;" style="text;html=1;strokeColor=none;fillColor=none;align=center;verticalAlign=middle;whiteSpace=wrap;rounded=0;" parent="1" vertex="1"><mxGeometry x="881" y="1402" width="60" height="30" as="geometry"/></mxCell><mxCell id="i1UuszKoWaV959UOTAM5-140" value="" style="endArrow=classic;html=1;rounded=0;" parent="1" edge="1"><mxGeometry width="50" height="50" relative="1" as="geometry"><mxPoint x="869.5" y="1426" as="sourcePoint"/><mxPoint x="549" y="1481" as="targetPoint"/></mxGeometry></mxCell><mxCell id="i1UuszKoWaV959UOTAM5-141" value="" style="endArrow=classic;html=1;rounded=0;" parent="1" edge="1"><mxGeometry width="50" height="50" relative="1" as="geometry"><mxPoint x="533" y="1483" as="sourcePoint"/><mxPoint x="224" y="1568" as="targetPoint"/></mxGeometry></mxCell><mxCell id="i1UuszKoWaV959UOTAM5-142" value="" style="endArrow=classic;html=1;rounded=0;" parent="1" edge="1"><mxGeometry width="50" height="50" relative="1" as="geometry"><mxPoint x="533" y="1479" as="sourcePoint"/><mxPoint x="227" y="1492" as="targetPoint"/></mxGeometry></mxCell><mxCell id="i1UuszKoWaV959UOTAM5-143" value="p1 navigated to game screen" style="text;html=1;strokeColor=none;fillColor=none;align=center;verticalAlign=middle;whiteSpace=wrap;rounded=0;" parent="1" vertex="1"><mxGeometry x="145" y="1477" width="60" height="30" as="geometry"/></mxCell><mxCell id="i1UuszKoWaV959UOTAM5-144" value="p2 navigated to game screen" style="text;html=1;strokeColor=none;fillColor=none;align=center;verticalAlign=middle;whiteSpace=wrap;rounded=0;" parent="1" vertex="1"><mxGeometry x="147" y="1557" width="60" height="30" as="geometry"/></mxCell><mxCell id="i1UuszKoWaV959UOTAM5-145" value="gamer" style="shape=umlActor;verticalLabelPosition=bottom;verticalAlign=top;html=1;outlineConnect=0;" parent="1" vertex="1"><mxGeometry x="1272" y="755" width="30" height="60" as="geometry"/></mxCell><mxCell id="i1UuszKoWaV959UOTAM5-146" value="frontend" style="rounded=1;whiteSpace=wrap;html=1;" parent="1" vertex="1"><mxGeometry x="1538" y="766" width="120" height="60" as="geometry"/></mxCell><mxCell id="i1UuszKoWaV959UOTAM5-147" value="backend" style="rounded=1;whiteSpace=wrap;html=1;" parent="1" vertex="1"><mxGeometry x="1869" y="766" width="120" height="60" as="geometry"/></mxCell><mxCell id="i1UuszKoWaV959UOTAM5-150" value="" style="endArrow=classic;html=1;rounded=0;" parent="1" edge="1"><mxGeometry width="50" height="50" relative="1" as="geometry"><mxPoint x="1296" y="876" as="sourcePoint"/><mxPoint x="1599" y="876" as="targetPoint"/></mxGeometry></mxCell><mxCell id="i1UuszKoWaV959UOTAM5-151" value="Game Screen&lt;br&gt;WebSockets" style="text;html=1;align=center;verticalAlign=middle;resizable=0;points=[];autosize=1;strokeColor=none;fillColor=none;" parent="1" vertex="1"><mxGeometry x="1552.5" y="714" width="92" height="41" as="geometry"/></mxCell><mxCell id="i1UuszKoWaV959UOTAM5-152" value="" style="endArrow=classic;html=1;rounded=0;" parent="1" edge="1"><mxGeometry width="50" height="50" relative="1" as="geometry"><mxPoint x="1611" y="875" as="sourcePoint"/><mxPoint x="1932.0000000000005" y="875.44" as="targetPoint"/></mxGeometry></mxCell><mxCell id="i1UuszKoWaV959UOTAM5-154" value="" style="endArrow=none;dashed=1;html=1;dashPattern=1 3;strokeWidth=2;rounded=0;" parent="1" edge="1"><mxGeometry width="50" height="50" relative="1" as="geometry"><mxPoint x="1289" y="840" as="sourcePoint"/><mxPoint x="1289" y="1864" as="targetPoint"/></mxGeometry></mxCell><mxCell id="i1UuszKoWaV959UOTAM5-155" value="" style="endArrow=none;dashed=1;html=1;dashPattern=1 3;strokeWidth=2;rounded=0;" parent="1" edge="1"><mxGeometry width="50" height="50" relative="1" as="geometry"><mxPoint x="1602" y="826" as="sourcePoint"/><mxPoint x="1602" y="1850" as="targetPoint"/></mxGeometry></mxCell><mxCell id="i1UuszKoWaV959UOTAM5-156" value="" style="endArrow=none;dashed=1;html=1;dashPattern=1 3;strokeWidth=2;rounded=0;" parent="1" edge="1"><mxGeometry width="50" height="50" relative="1" as="geometry"><mxPoint x="1928.44" y="830" as="sourcePoint"/><mxPoint x="1928.44" y="1854" as="targetPoint"/></mxGeometry></mxCell><mxCell id="i1UuszKoWaV959UOTAM5-157" value="p1 plays move" style="text;html=1;strokeColor=none;fillColor=none;align=center;verticalAlign=middle;whiteSpace=wrap;rounded=0;" parent="1" vertex="1"><mxGeometry x="1220" y="861" width="60" height="30" as="geometry"/></mxCell><mxCell id="i1UuszKoWaV959UOTAM5-158" value="Player that sends invite first is first" style="text;html=1;strokeColor=none;fillColor=none;align=center;verticalAlign=middle;whiteSpace=wrap;rounded=0;" parent="1" vertex="1"><mxGeometry x="1144" y="861" width="60" height="30" as="geometry"/></mxCell><mxCell id="i1UuszKoWaV959UOTAM5-159" value="move is persisted" style="text;html=1;strokeColor=none;fillColor=none;align=center;verticalAlign=middle;whiteSpace=wrap;rounded=0;" parent="1" vertex="1"><mxGeometry x="1940" y="857" width="60" height="30" as="geometry"/></mxCell><mxCell id="i1UuszKoWaV959UOTAM5-160" value="" style="endArrow=classic;html=1;rounded=0;" parent="1" edge="1"><mxGeometry width="50" height="50" relative="1" as="geometry"><mxPoint x="1925" y="879" as="sourcePoint"/><mxPoint x="1606" y="942" as="targetPoint"/></mxGeometry></mxCell><mxCell id="i1UuszKoWaV959UOTAM5-161" value="" style="endArrow=classic;html=1;rounded=0;" parent="1" edge="1"><mxGeometry width="50" height="50" relative="1" as="geometry"><mxPoint x="1533" y="941" as="sourcePoint"/><mxPoint x="1295" y="941" as="targetPoint"/></mxGeometry></mxCell><mxCell id="i1UuszKoWaV959UOTAM5-162" value="p2 notified" style="text;html=1;strokeColor=none;fillColor=none;align=center;verticalAlign=middle;whiteSpace=wrap;rounded=0;" parent="1" vertex="1"><mxGeometry x="1220" y="925" width="60" height="30" as="geometry"/></mxCell><mxCell id="i1UuszKoWaV959UOTAM5-163" value="game updated" style="text;html=1;strokeColor=none;fillColor=none;align=center;verticalAlign=middle;whiteSpace=wrap;rounded=0;" parent="1" vertex="1"><mxGeometry x="1542" y="925" width="60" height="30" as="geometry"/></mxCell><mxCell id="i1UuszKoWaV959UOTAM5-165" value="" style="endArrow=classic;html=1;rounded=0;" parent="1" edge="1"><mxGeometry width="50" height="50" relative="1" as="geometry"><mxPoint x="1296" y="1090" as="sourcePoint"/><mxPoint x="1599" y="1090" as="targetPoint"/></mxGeometry></mxCell><mxCell id="i1UuszKoWaV959UOTAM5-166" value="" style="endArrow=classic;html=1;rounded=0;" parent="1" edge="1"><mxGeometry width="50" height="50" relative="1" as="geometry"><mxPoint x="1611" y="1089" as="sourcePoint"/><mxPoint x="1932" y="1089.44" as="targetPoint"/></mxGeometry></mxCell><mxCell id="i1UuszKoWaV959UOTAM5-167" value="p1 plays winning move" style="text;html=1;strokeColor=none;fillColor=none;align=center;verticalAlign=middle;whiteSpace=wrap;rounded=0;" parent="1" vertex="1"><mxGeometry x="1220" y="1075" width="60" height="30" as="geometry"/></mxCell><mxCell id="i1UuszKoWaV959UOTAM5-168" value="move is persisted,&lt;br&gt;game state changed to finalized" style="text;html=1;strokeColor=none;fillColor=none;align=center;verticalAlign=middle;whiteSpace=wrap;rounded=0;" parent="1" vertex="1"><mxGeometry x="1940" y="1071" width="60" height="30" as="geometry"/></mxCell><mxCell id="i1UuszKoWaV959UOTAM5-169" value="" style="endArrow=classic;html=1;rounded=0;" parent="1" edge="1"><mxGeometry width="50" height="50" relative="1" as="geometry"><mxPoint x="1925" y="1093" as="sourcePoint"/><mxPoint x="1606" y="1156" as="targetPoint"/></mxGeometry></mxCell><mxCell id="i1UuszKoWaV959UOTAM5-170" value="" style="endArrow=classic;html=1;rounded=0;" parent="1" edge="1"><mxGeometry width="50" height="50" relative="1" as="geometry"><mxPoint x="1533" y="1155" as="sourcePoint"/><mxPoint x="1295" y="1155" as="targetPoint"/></mxGeometry></mxCell><mxCell id="i1UuszKoWaV959UOTAM5-171" value="p2 notified" style="text;html=1;strokeColor=none;fillColor=none;align=center;verticalAlign=middle;whiteSpace=wrap;rounded=0;" parent="1" vertex="1"><mxGeometry x="1220" y="1139" width="60" height="30" as="geometry"/></mxCell><mxCell id="i1UuszKoWaV959UOTAM5-172" value="game updated" style="text;html=1;strokeColor=none;fillColor=none;align=center;verticalAlign=middle;whiteSpace=wrap;rounded=0;" parent="1" vertex="1"><mxGeometry x="1542" y="1139" width="60" height="30" as="geometry"/></mxCell><mxCell id="i1UuszKoWaV959UOTAM5-173" value="" style="endArrow=classic;html=1;rounded=0;" parent="1" edge="1"><mxGeometry width="50" height="50" relative="1" as="geometry"><mxPoint x="1293" y="1344" as="sourcePoint"/><mxPoint x="1596" y="1344" as="targetPoint"/></mxGeometry></mxCell><mxCell id="i1UuszKoWaV959UOTAM5-174" value="" style="endArrow=classic;html=1;rounded=0;" parent="1" edge="1"><mxGeometry width="50" height="50" relative="1" as="geometry"><mxPoint x="1608" y="1343" as="sourcePoint"/><mxPoint x="1929" y="1343.44" as="targetPoint"/></mxGeometry></mxCell><mxCell id="i1UuszKoWaV959UOTAM5-175" value="p1 plays stalemate&lt;br&gt;move" style="text;html=1;strokeColor=none;fillColor=none;align=center;verticalAlign=middle;whiteSpace=wrap;rounded=0;" parent="1" vertex="1"><mxGeometry x="1217" y="1329" width="60" height="30" as="geometry"/></mxCell><mxCell id="i1UuszKoWaV959UOTAM5-176" value="move is persisted,&lt;br&gt;game state changed to finalized" style="text;html=1;strokeColor=none;fillColor=none;align=center;verticalAlign=middle;whiteSpace=wrap;rounded=0;" parent="1" vertex="1"><mxGeometry x="1937" y="1325" width="60" height="30" as="geometry"/></mxCell><mxCell id="i1UuszKoWaV959UOTAM5-177" value="" style="endArrow=classic;html=1;rounded=0;" parent="1" edge="1"><mxGeometry width="50" height="50" relative="1" as="geometry"><mxPoint x="1922" y="1347" as="sourcePoint"/><mxPoint x="1603" y="1410" as="targetPoint"/></mxGeometry></mxCell><mxCell id="i1UuszKoWaV959UOTAM5-178" value="" style="endArrow=classic;html=1;rounded=0;" parent="1" edge="1"><mxGeometry width="50" height="50" relative="1" as="geometry"><mxPoint x="1530" y="1409" as="sourcePoint"/><mxPoint x="1292" y="1409" as="targetPoint"/></mxGeometry></mxCell><mxCell id="i1UuszKoWaV959UOTAM5-179" value="p2 notified" style="text;html=1;strokeColor=none;fillColor=none;align=center;verticalAlign=middle;whiteSpace=wrap;rounded=0;" parent="1" vertex="1"><mxGeometry x="1217" y="1393" width="60" height="30" as="geometry"/></mxCell><mxCell id="i1UuszKoWaV959UOTAM5-180" value="game updated" style="text;html=1;strokeColor=none;fillColor=none;align=center;verticalAlign=middle;whiteSpace=wrap;rounded=0;" parent="1" vertex="1"><mxGeometry x="1539" y="1393" width="60" height="30" as="geometry"/></mxCell><mxCell id="i1UuszKoWaV959UOTAM5-181" value="After game end, p1 requests rematch" style="text;html=1;strokeColor=none;fillColor=none;align=center;verticalAlign=middle;whiteSpace=wrap;rounded=0;" parent="1" vertex="1"><mxGeometry x="1217" y="1512" width="60" height="30" as="geometry"/></mxCell><mxCell id="i1UuszKoWaV959UOTAM5-182" value="" style="endArrow=classic;html=1;rounded=0;" parent="1" edge="1"><mxGeometry width="50" height="50" relative="1" as="geometry"><mxPoint x="1291" y="1526" as="sourcePoint"/><mxPoint x="1594" y="1526" as="targetPoint"/></mxGeometry></mxCell><mxCell id="i1UuszKoWaV959UOTAM5-183" value="" style="endArrow=classic;html=1;rounded=0;" parent="1" edge="1"><mxGeometry width="50" height="50" relative="1" as="geometry"><mxPoint x="1606" y="1525" as="sourcePoint"/><mxPoint x="1927" y="1525.44" as="targetPoint"/></mxGeometry></mxCell><mxCell id="i1UuszKoWaV959UOTAM5-184" value="rematch, requested" style="text;html=1;strokeColor=none;fillColor=none;align=center;verticalAlign=middle;whiteSpace=wrap;rounded=0;" parent="1" vertex="1"><mxGeometry x="1935" y="1507" width="60" height="30" as="geometry"/></mxCell><mxCell id="i1UuszKoWaV959UOTAM5-185" value="" style="endArrow=classic;html=1;rounded=0;" parent="1" edge="1"><mxGeometry width="50" height="50" relative="1" as="geometry"><mxPoint x="1920" y="1529" as="sourcePoint"/><mxPoint x="1601" y="1592" as="targetPoint"/></mxGeometry></mxCell><mxCell id="i1UuszKoWaV959UOTAM5-186" value="" style="endArrow=classic;html=1;rounded=0;" parent="1" edge="1"><mxGeometry width="50" height="50" relative="1" as="geometry"><mxPoint x="1592" y="1591" as="sourcePoint"/><mxPoint x="1290.0000000000005" y="1591" as="targetPoint"/></mxGeometry></mxCell><mxCell id="i1UuszKoWaV959UOTAM5-189" value="p2 accepts" style="text;html=1;strokeColor=none;fillColor=none;align=center;verticalAlign=middle;whiteSpace=wrap;rounded=0;" parent="1" vertex="1"><mxGeometry x="1224" y="1575" width="60" height="30" as="geometry"/></mxCell><mxCell id="i1UuszKoWaV959UOTAM5-190" value="" style="endArrow=classic;html=1;rounded=0;" parent="1" edge="1"><mxGeometry width="50" height="50" relative="1" as="geometry"><mxPoint x="1290" y="1598" as="sourcePoint"/><mxPoint x="1593" y="1644" as="targetPoint"/></mxGeometry></mxCell><mxCell id="i1UuszKoWaV959UOTAM5-191" value="" style="endArrow=classic;html=1;rounded=0;" parent="1" edge="1"><mxGeometry width="50" height="50" relative="1" as="geometry"><mxPoint x="1605" y="1640" as="sourcePoint"/><mxPoint x="1908" y="1640" as="targetPoint"/></mxGeometry></mxCell><mxCell id="i1UuszKoWaV959UOTAM5-192" value="new game started" style="text;html=1;strokeColor=none;fillColor=none;align=center;verticalAlign=middle;whiteSpace=wrap;rounded=0;" parent="1" vertex="1"><mxGeometry x="1931" y="1623" width="60" height="30" as="geometry"/></mxCell><mxCell id="i1UuszKoWaV959UOTAM5-193" value="p1 and p2 notified" style="text;html=1;strokeColor=none;fillColor=none;align=center;verticalAlign=middle;whiteSpace=wrap;rounded=0;" parent="1" vertex="1"><mxGeometry x="1217" y="1697" width="60" height="30" as="geometry"/></mxCell><mxCell id="i1UuszKoWaV959UOTAM5-194" value="" style="endArrow=classic;html=1;rounded=0;" parent="1" edge="1"><mxGeometry width="50" height="50" relative="1" as="geometry"><mxPoint x="1922" y="1652.89" as="sourcePoint"/><mxPoint x="1603" y="1715.8900000000006" as="targetPoint"/></mxGeometry></mxCell><mxCell id="i1UuszKoWaV959UOTAM5-195" value="" style="endArrow=classic;html=1;rounded=0;" parent="1" edge="1"><mxGeometry width="50" height="50" relative="1" as="geometry"><mxPoint x="1591" y="1715" as="sourcePoint"/><mxPoint x="1292.0000000000005" y="1714.89" as="targetPoint"/></mxGeometry></mxCell><mxCell id="i1UuszKoWaV959UOTAM5-196" value="OnlineUsers" style="swimlane;fontStyle=0;childLayout=stackLayout;horizontal=1;startSize=30;fillColor=none;horizontalStack=0;resizeParent=1;resizeParentMax=0;resizeLast=0;collapsible=1;marginBottom=0;" parent="1" vertex="1"><mxGeometry x="174" y="2096" width="140" height="108" as="geometry"/></mxCell><mxCell id="i1UuszKoWaV959UOTAM5-197" value="id: TBD" style="text;strokeColor=none;fillColor=none;align=left;verticalAlign=top;spacingLeft=4;spacingRight=4;overflow=hidden;rotatable=0;points=[[0,0.5],[1,0.5]];portConstraint=eastwest;" parent="i1UuszKoWaV959UOTAM5-196" vertex="1"><mxGeometry y="30" width="140" height="26" as="geometry"/></mxCell><mxCell id="i1UuszKoWaV959UOTAM5-213" value="username: string" style="text;strokeColor=none;fillColor=none;align=left;verticalAlign=top;spacingLeft=4;spacingRight=4;overflow=hidden;rotatable=0;points=[[0,0.5],[1,0.5]];portConstraint=eastwest;" parent="i1UuszKoWaV959UOTAM5-196" vertex="1"><mxGeometry y="56" width="140" height="26" as="geometry"/></mxCell><mxCell id="i1UuszKoWaV959UOTAM5-199" value="lastHearbeat: unixTime" style="text;strokeColor=none;fillColor=none;align=left;verticalAlign=top;spacingLeft=4;spacingRight=4;overflow=hidden;rotatable=0;points=[[0,0.5],[1,0.5]];portConstraint=eastwest;" parent="i1UuszKoWaV959UOTAM5-196" vertex="1"><mxGeometry y="82" width="140" height="26" as="geometry"/></mxCell><mxCell id="i1UuszKoWaV959UOTAM5-200" value="&lt;b&gt;Dynamo Tables&lt;br&gt;&lt;/b&gt;" style="text;html=1;strokeColor=none;fillColor=none;align=center;verticalAlign=middle;whiteSpace=wrap;rounded=0;" parent="1" vertex="1"><mxGeometry x="439" y="2008" width="118" height="30" as="geometry"/></mxCell><mxCell id="i1UuszKoWaV959UOTAM5-203" value="If user does not send heartbeat, then he is removed from online list" style="text;html=1;strokeColor=none;fillColor=none;align=center;verticalAlign=middle;whiteSpace=wrap;rounded=0;" parent="1" vertex="1"><mxGeometry x="889" y="1621" width="60" height="30" as="geometry"/></mxCell><mxCell id="i1UuszKoWaV959UOTAM5-204" value="" style="endArrow=classic;html=1;rounded=0;" parent="1" edge="1"><mxGeometry width="50" height="50" relative="1" as="geometry"><mxPoint x="873.25" y="1637" as="sourcePoint"/><mxPoint x="541" y="1637" as="targetPoint"/></mxGeometry></mxCell><mxCell id="i1UuszKoWaV959UOTAM5-205" value="Online list updated" style="text;html=1;strokeColor=none;fillColor=none;align=center;verticalAlign=middle;whiteSpace=wrap;rounded=0;" parent="1" vertex="1"><mxGeometry x="464" y="1621" width="60" height="30" as="geometry"/></mxCell><mxCell id="i1UuszKoWaV959UOTAM5-209" value="Invitations" style="swimlane;fontStyle=0;childLayout=stackLayout;horizontal=1;startSize=26;fillColor=none;horizontalStack=0;resizeParent=1;resizeParentMax=0;resizeLast=0;collapsible=1;marginBottom=0;" parent="1" vertex="1"><mxGeometry x="420" y="2096" width="140" height="78" as="geometry"/></mxCell><mxCell id="i1UuszKoWaV959UOTAM5-210" value="sender: id" style="text;strokeColor=none;fillColor=none;align=left;verticalAlign=top;spacingLeft=4;spacingRight=4;overflow=hidden;rotatable=0;points=[[0,0.5],[1,0.5]];portConstraint=eastwest;" parent="i1UuszKoWaV959UOTAM5-209" vertex="1"><mxGeometry y="26" width="140" height="26" as="geometry"/></mxCell><mxCell id="i1UuszKoWaV959UOTAM5-211" value="recipient: id" style="text;strokeColor=none;fillColor=none;align=left;verticalAlign=top;spacingLeft=4;spacingRight=4;overflow=hidden;rotatable=0;points=[[0,0.5],[1,0.5]];portConstraint=eastwest;" parent="i1UuszKoWaV959UOTAM5-209" vertex="1"><mxGeometry y="52" width="140" height="26" as="geometry"/></mxCell><mxCell id="i1UuszKoWaV959UOTAM5-215" value="Games" style="swimlane;fontStyle=0;childLayout=stackLayout;horizontal=1;startSize=30;horizontalStack=0;resizeParent=1;resizeParentMax=0;resizeLast=0;collapsible=1;marginBottom=0;" parent="1" vertex="1"><mxGeometry x="640.5" y="2096" width="281" height="341" as="geometry"/></mxCell><mxCell id="i1UuszKoWaV959UOTAM5-216" value="id: TBD" style="text;strokeColor=none;fillColor=none;align=left;verticalAlign=middle;spacingLeft=4;spacingRight=4;overflow=hidden;points=[[0,0.5],[1,0.5]];portConstraint=eastwest;rotatable=0;" parent="i1UuszKoWaV959UOTAM5-215" vertex="1"><mxGeometry y="30" width="281" height="30" as="geometry"/></mxCell><mxCell id="i1UuszKoWaV959UOTAM5-217" value="participants: [id,id] ([p1,p2])" style="text;strokeColor=none;fillColor=none;align=left;verticalAlign=middle;spacingLeft=4;spacingRight=4;overflow=hidden;points=[[0,0.5],[1,0.5]];portConstraint=eastwest;rotatable=0;" parent="i1UuszKoWaV959UOTAM5-215" vertex="1"><mxGeometry y="60" width="281" height="30" as="geometry"/></mxCell><mxCell id="i1UuszKoWaV959UOTAM5-221" value="playerTurn: id  (e.g: p2)" style="text;strokeColor=none;fillColor=none;align=left;verticalAlign=middle;spacingLeft=4;spacingRight=4;overflow=hidden;points=[[0,0.5],[1,0.5]];portConstraint=eastwest;rotatable=0;" parent="i1UuszKoWaV959UOTAM5-215" vertex="1"><mxGeometry y="90" width="281" height="30" as="geometry"/></mxCell><mxCell id="i1UuszKoWaV959UOTAM5-218" value="state: STARTED | FINISHED" style="text;strokeColor=none;fillColor=none;align=left;verticalAlign=middle;spacingLeft=4;spacingRight=4;overflow=hidden;points=[[0,0.5],[1,0.5]];portConstraint=eastwest;rotatable=0;" parent="i1UuszKoWaV959UOTAM5-215" vertex="1"><mxGeometry y="120" width="281" height="30" as="geometry"/></mxCell><mxCell id="i1UuszKoWaV959UOTAM5-220" value="board: [&#10;  [0, 1, 9],&#10;  [9, 9, 9],&#10;  [9, 0, 9]&#10;]&#10;(&#10;    0 - p1&#10;    1 - p2&#10;    9 - empty&#10;)&#10;&#10;" style="text;strokeColor=none;fillColor=none;align=left;verticalAlign=middle;spacingLeft=4;spacingRight=4;overflow=hidden;points=[[0,0.5],[1,0.5]];portConstraint=eastwest;rotatable=0;" parent="i1UuszKoWaV959UOTAM5-215" vertex="1"><mxGeometry y="150" width="281" height="191" as="geometry"/></mxCell></root></mxGraphModel></diagram></mxfile>